<?xml version="1.0" encoding="UTF-8" standalone="no"?>
<svg
   xmlns:dc="http://purl.org/dc/elements/1.1/"
   xmlns:cc="http://creativecommons.org/ns#"
   xmlns:rdf="http://www.w3.org/1999/02/22-rdf-syntax-ns#"
   xmlns:svg="http://www.w3.org/2000/svg"
   xmlns="http://www.w3.org/2000/svg"
   xmlns:sodipodi="http://sodipodi.sourceforge.net/DTD/sodipodi-0.dtd"
   xmlns:inkscape="http://www.inkscape.org/namespaces/inkscape"
   height="28px"
   style="enable-background:new 0 0 32 28;"
   version="1.1"
   viewBox="0 0 32 28"
   width="32px"
   xml:space="preserve"
   id="svg2"
   inkscape:version="0.48.4 r9939"
   sodipodi:docname="list_visible.svg"><metadata
     id="metadata28"><rdf:RDF><cc:Work
         rdf:about=""><dc:format>image/svg+xml</dc:format><dc:type
           rdf:resource="http://purl.org/dc/dcmitype/StillImage" /><dc:title></dc:title></cc:Work></rdf:RDF></metadata><defs
     id="defs26" /><sodipodi:namedview
     pagecolor="#ffffff"
     bordercolor="#666666"
     borderopacity="1"
     objecttolerance="10"
     gridtolerance="10"
     guidetolerance="10"
     inkscape:pageopacity="0"
     inkscape:pageshadow="2"
     inkscape:window-width="1280"
     inkscape:window-height="775"
     id="namedview24"
     showgrid="false"
     inkscape:zoom="8.4285714"
     inkscape:cx="-3.8135593"
     inkscape:cy="14"
     inkscape:window-x="0"
     inkscape:window-y="0"
     inkscape:window-maximized="1"
     inkscape:current-layer="g6" /><g
     id="Layer_1" /><g
     id="list"><g
       id="g6"><circle
         cx="2"
         cy="2"
         r="2"
         style="fill:#4E4E50;"
         id="circle8"
         d="M 4,2 C 4,3.1045695 3.1045695,4 2,4 0.8954305,4 0,3.1045695 0,2 0,0.8954305 0.8954305,0 2,0 3.1045695,0 4,0.8954305 4,2 z" /><circle
         cx="2"
         cy="10"
         r="2"
         style="fill:#4E4E50;"
         id="circle10"
         d="M 4,10 C 4,11.104569 3.1045695,12 2,12 0.8954305,12 0,11.104569 0,10 0,8.8954305 0.8954305,8 2,8 3.1045695,8 4,8.8954305 4,10 z" /><circle
         cx="2"
         cy="18"
         r="2"
         style="fill:#4E4E50;"
         id="circle12"
         d="m 4,18 c 0,1.104569 -0.8954305,2 -2,2 -1.1045695,0 -2,-0.895431 -2,-2 0,-1.104569 0.8954305,-2 2,-2 1.1045695,0 2,0.895431 2,2 z" /><circle
         cx="2"
         cy="26"
         r="2"
         style="fill:#4E4E50;"
         id="circle14"
         d="m 4,26 c 0,1.104569 -0.8954305,2 -2,2 -1.1045695,0 -2,-0.895431 -2,-2 0,-1.104569 0.8954305,-2 2,-2 1.1045695,0 2,0.895431 2,2 z" /><rect
         height="4"
         style="fill:#4E4E50;"
         width="24"
         x="8"
         id="rect16" /><rect
         height="4"
         style="fill:#d0cede;fill-opacity:1"
         width="24"
         x="8"
         y="8"
         id="rect18" /><rect
         height="4"
         style="fill:#4E4E50;"
         width="24"
         x="8"
         y="16"
         id="rect20" /><rect
         height="4"
         style="fill:#4E4E50;"
         width="24"
         x="8"
         y="24"
         id="rect22" /></g></g></svg>